<mxfile
  host="Electron" 
  agent="Mozilla/5.0 (Macintosh; Intel Mac OS X 10_15_7) AppleWebKit/537.36 (KHTML, like Gecko) draw.io/25.0.2 Chrome/128.0.6613.186 Electron/32.2.5 Safari/537.36" 
  version="25.0.2"
  >
  <diagram
    name="-"
    >
    <mxGraphModel
      grid="1" 
      gridSize="10" 
      guides="1" 
      tooltips="1" 
      connect="1" 
      arrows="1" 
      fold="1" 
      page="1" 
      pageScale="1" 
      pageWidth="1" 
      pageHeight="1" 
      math="0" 
      shadow="0"
      >
      <root>
        <mxCell
          id="page"
          />
        <mxCell
          id="root" 
          parent="page"
          />
        <mxCell
          style="verticalAlign=top;aspect=fixed;align=center;spacingLeft=5;spacingRight=5;spacingBottom=5;strokeColor=none;" 
          id="shape_" 
          parent="root" 
          value=" " 
          vertex="1"
          >
          <mxGeometry
            as="geometry" 
            width="102" 
            height="83" 
            x="0" 
            y="0"
            />
          </mxCell>
        <mxCell
          style="rounded=1;whiteSpace=wrap;verticalAlign=top;align=center;sketch=0;html=1;labelPosition=center;verticalLabelPosition=bottom;spacingTop=-6;fontSize=11;fontStyle=1;fontColor=#999999;shape=image;aspect=fixed;imageAspect=0;image=data:image/svg+xml,PHN2ZyB4bWxucz0iaHR0cDovL3d3dy53My5vcmcvMjAwMC9zdmciIHhtbG5zOnY9Imh0dHBzOi8vdmVjdGEuaW8vbmFubyIgd2lkdGg9IjE5LjkzMzEzNDA3ODk3OTQ5MiIgaGVpZ2h0PSIxMC44NjAwMDA2MTAzNTE1NjIiIHZpZXdCb3g9IjAuMDAwMDI2NTAxNDY0MTYyNzIwMzY3IC0zLjgxMjY2MDA1NDMzNjQ0NzVlLTggMTkuOTMzMTM0MDc4OTc5NDkyIDEwLjg2MDAwMDYxMDM1MTU2MiI+JiN4YTsJPHN0eWxlIHR5cGU9InRleHQvY3NzIj4mI3hhOwkuc3Qwe2ZpbGw6IzQyODVmNDt9JiN4YTsJLnN0MXtmaWxsOiM2NjlkZjY7fSYjeGE7CS5zdDJ7ZmlsbDojYWVjYmZhO30mI3hhOwk8L3N0eWxlPiYjeGE7CTxwYXRoIGNsYXNzPSJzdDAiIGQ9Ik0xOS41NjMgMEg3LjE5M2EuMzIuMzIgMCAwIDAtLjMyLjMzdjIuMTZhLjMyLjMyIDAgMCAwIC4zMi4zMmgxMi4zN2EuMzIuMzIgMCAwIDAgLjM3LS4zMlYuMzNhLjMyLjMyIDAgMCAwLS4zMS0uMzN6TTguNDIzIDIuMTRhLjcuNyAwIDEgMSAuNy0uN2gwYS43LjcgMCAwIDEtLjcuN3ptMTEuMTQgMS45SDcuMTkzYS4zMi4zMiAwIDAgMC0uMzIuMzJ2Mi4xNWEuMzIuMzIgMCAwIDAgLjMyLjMyaDEyLjM3YS4zMi4zMiAwIDAgMCAuMzItLjMyVjQuMzZhLjMyLjMyIDAgMCAwLS4zMi0uMzJ6TTguNDIzIDYuMThhLjcuNyAwIDEgMSAuNy0uN2gwYS43LjcgMCAwIDEtLjcuN3ptMTEuMTkgMS44N0g3LjI1M2EuMzIuMzIgMCAwIDAtLjMyLjMydjIuMTZhLjMyLjMyIDAgMCAwIC4zMi4zM2gxMi4zNmEuMzIuMzIgMCAwIDAgLjMyLS4zM1Y4LjM3YS4zMi4zMiAwIDAgMC0uMzItLjMyem0tMTEuMTQgMi4xM2EuNzEuNzEgMCAwIDEtLjctLjcxLjcxLjcxIDAgMCAxIDEuNDEgMCAuNzEuNzEgMCAwIDEtLjcxLjcxeiIvPiYjeGE7CTxwYXRoIGNsYXNzPSJzdDEiIGQ9Ik00LjY3MyAzLjI5aC0yLjEzYS44MTIuODEyIDAgMCAxLS4yMS0xLjYxaDIuMzRhLjgxNS44MTUgMCAxIDEgLjI2IDEuNjF6Ii8+JiN4YTsJPHBhdGggY2xhc3M9InN0MiIgZD0iTTQuNjczIDYuMjRILjg1M2EuODIuODIgMCAwIDEtLjIxLTEuNjJoNGEuODIzLjgyMyAwIDAgMSAuMjkgMS42MnoiLz4mI3hhOwk8cGF0aCBjbGFzcz0ic3QxIiBkPSJNNC42NzMgOS4xOGgtMi4xM2EuODEyLjgxMiAwIDAgMS0uMjEtMS42MWgyLjM0YS44MTUuODE1IDAgMCAxIC4yNiAxLjYxeiIvPiYjeGE7PC9zdmc+;strokeColor=none;" 
          id="transfer_appliance_" 
          parent="shape_" 
          value=" " 
          vertex="1"
          >
          <mxGeometry
            width="42" 
            height="23" 
            as="geometry" 
            x="30" 
            y="30"
            />
          </mxCell>
        </root>
      </mxGraphModel>
    </diagram>
  </mxfile>